<svg id="Capa_1" enable-background="new 0 0 511.999 511.999" height="512" viewBox="0 0 511.999 511.999" width="512" xmlns="http://www.w3.org/2000/svg"><g><g><path d="m173.429 511.999c-4.171 0-7.988-2.699-9.402-6.615-1.382-3.825-.255-8.221 2.808-10.902 3.28-2.87 8.168-3.259 11.87-.97 3.516 2.174 5.36 6.468 4.51 10.515-.96 4.576-5.098 7.972-9.786 7.972z"/><g><path d="m211.074 143.223c-5.522 0-10-4.477-10-10 0-9.44 7.681-17.121 17.121-17.121h10.293c5.522 0 10 4.478 10 10s-4.478 10-10 10h-7.835c-1.236 4.119-5.057 7.121-9.579 7.121zm10-10v.005c0-.002 0-.003 0-.005z"/></g><g><path d="m136.163 143.223c-4.522 0-8.343-3.002-9.579-7.121h-7.835c-5.522 0-10-4.478-10-10s4.478-10 10-10h10.293c9.44 0 17.121 7.681 17.121 17.121 0 5.522-4.478 10-10 10zm-10-10v.005c0-.002 0-.003 0-.005z"/></g><g><path d="m138.672 75.983c-4.043 0-7.85-2.47-9.359-6.477-1.947-5.168.663-10.936 5.831-12.884 24.506-9.236 51.54-9.343 76.121-.299l.737.271c5.184 1.906 7.841 7.653 5.935 12.837s-7.653 7.841-12.837 5.935l-.738-.271c-20.076-7.386-42.151-7.299-62.165.243-1.161.437-2.354.645-3.525.645z"/></g><path d="m337.216 84.77c0-23.016-16.492-42.251-38.28-46.508-4.242-21.381-23.073-37.834-45.592-38.254-.284-.006-.568-.008-.852-.008-12.513 0-24.513 5.17-33.377 14.175-13.865-6.553-29.351-10.22-45.676-10.22-16.233 0-31.635 3.625-45.439 10.108-8.851-8.94-20.786-14.063-33.267-14.063-.285 0-.57.002-.855.008-22.52.42-41.35 16.873-45.592 38.254-21.789 4.257-38.282 23.492-38.282 46.508 0 6.425 1.326 12.792 3.866 18.689-3.053 7.067-4.332 14.746-3.715 22.495 1.684 21.21 18.181 38.796 39.268 42.753 4.261 7.333 10.825 13.258 18.778 16.636 7.23 36.799 33.25 67.151 68.458 79.973v16.558h-73.02c-28.29 0-51.306 23.016-51.306 51.306v168.819c0 5.523 4.478 10 10 10h105.886c5.522 0 10-4.477 10-10 0-5.522-4.478-10-10-10h-95.884v-158.819c0-17.262 14.044-31.306 31.306-31.306h49.227l-31.048 19.565c-3.035 1.912-4.813 5.303-4.66 8.887s2.214 6.811 5.401 8.457l21.063 10.884-16.272 22.047c-1.759 2.384-2.371 5.425-1.671 8.303.701 2.879 2.642 5.298 5.299 6.607l77.792 38.308c1.401.689 2.912 1.028 4.417 1.028.079 0 .159-.001.238-.003.079.002.159.003.238.003 1.504 0 3.016-.339 4.417-1.028l77.792-38.308c2.657-1.309 4.598-3.728 5.299-6.607.7-2.878.088-5.919-1.671-8.303l-16.272-22.047 21.063-10.884c3.188-1.646 5.248-4.873 5.401-8.457.152-3.584-1.625-6.975-4.66-8.887l-31.048-19.565h49.227c17.262 0 31.306 14.044 31.306 31.306v158.819h-95.886c-5.523 0-10 4.478-10 10 0 5.523 4.477 10 10 10h105.886c5.522 0 10-4.477 10-10v-168.819c0-28.29-23.016-51.306-51.306-51.306h-72.602v-16.703c34.993-12.906 60.858-43.203 68.061-79.827 7.926-3.366 14.47-9.26 18.733-16.558 21.537-3.787 37.944-21.227 39.66-42.829.616-7.752-.662-15.431-3.715-22.498 2.54-5.897 3.866-12.265 3.866-18.689zm-307.123 39.599c-.442-5.559.805-11.056 3.607-15.896 1.795-3.101 1.794-6.924-.001-10.023-2.418-4.173-3.695-8.903-3.695-13.681 0-15.101 12.285-27.386 27.387-27.386 5.522 0 10-4.478 10-10 0-14.821 12.049-27.104 26.86-27.38 5.591-.094 11.039 1.642 15.64 4.852-26.491 19.549-43.706 50.978-43.706 86.353v2.378c-12.387 6.046-20.847 18.257-21.973 32.239-7.871-4.425-13.398-12.366-14.119-21.456zm80.454 249.596 16.135-21.86c1.739-2.357 2.357-5.357 1.693-8.209-.665-2.853-2.547-5.27-5.149-6.613l-15.953-8.243 33.014-20.804 18.883 89.673zm109.625-21.861 16.135 21.86-48.622 23.943 18.883-89.673 33.014 20.804-15.953 8.243c-2.603 1.344-4.484 3.761-5.149 6.613-.665 2.854-.047 5.854 1.692 8.21zm47.453-184.132c-4.084.911-7.169 4.269-7.731 8.415-4.626 34.102-28.99 62.344-62.071 71.951-4.272 1.241-7.211 5.155-7.211 9.604v30.096c-.286.641-.507 1.316-.654 2.017l-16.53 78.501-16.53-78.501c-.065-.308-.144-.611-.236-.909v-31.091c0-4.465-2.959-8.389-7.252-9.615-33.275-9.51-57.779-37.792-62.428-72.053-.563-4.146-3.647-7.504-7.731-8.415-8.787-1.961-15.165-9.934-15.165-18.957 0-8.88 5.997-16.618 14.583-18.818 4.424-1.133 7.517-5.12 7.517-9.687v-9.302c0-48.111 39.142-87.253 87.254-87.253 48.111 0 87.253 39.142 87.253 87.253v9.302c0 4.566 3.094 8.554 7.518 9.687 8.585 2.2 14.581 9.938 14.581 18.818-.002 9.023-6.379 16.996-15.167 18.957zm45.895-59.498c2.803 4.84 4.05 10.337 3.607 15.897-.742 9.35-6.348 17.355-14.446 21.698-1.045-14.085-9.53-26.402-21.989-32.483v-2.378c0-35.299-17.142-66.67-43.538-86.227 4.65-3.301 10.18-5.093 15.816-4.977 14.811.276 26.86 12.559 26.86 27.38 0 5.522 4.478 10 10 10 15.1 0 27.386 12.285 27.386 27.386 0 4.777-1.277 9.508-3.695 13.681-1.795 3.099-1.796 6.922-.001 10.023z"/><path d="m406.736 511.999h-40c-5.522 0-10-4.477-10-10v-233.681c0-40.048 32.581-72.629 72.629-72.629s72.63 32.581 72.63 72.629v23.766c0 16.542-13.458 30-30 30s-30-13.458-30-30v-23.766c0-6.964-5.666-12.629-12.63-12.629s-12.629 5.665-12.629 12.629v233.681c0 5.523-4.478 10-10 10zm-30-20h20v-223.681c0-17.991 14.638-32.629 32.629-32.629 17.992 0 32.63 14.638 32.63 32.629v23.766c0 5.514 4.486 10 10 10s10-4.486 10-10v-23.766c0-29.02-23.609-52.629-52.63-52.629-29.019 0-52.629 23.609-52.629 52.629z"/><path d="m148.88 216.637h-26.72c-5.522 0-10-4.478-10-10v-12.117c0-18.933 15.403-34.336 34.337-34.336h26.692c5.523 0 10 4.478 10 10v12.116c.001 18.933-15.391 34.337-34.309 34.337zm-16.719-20h16.72c7.891 0 14.309-6.432 14.309-14.337v-2.115h-16.692c-7.905 0-14.337 6.431-14.337 14.336z"/><path d="m224.219 216.637h-26.72c-18.918 0-34.31-15.403-34.31-34.337v-12.115c0-5.522 4.478-10 10-10h26.693c18.933 0 34.336 15.403 34.336 34.336v12.116c.001 5.522-4.476 10-9.999 10zm-41.029-36.453v2.115c0 7.905 6.419 14.337 14.31 14.337h16.72v-2.116c0-7.905-6.431-14.336-14.336-14.336z"/></g></g></svg>