<svg id="Layer_5" enable-background="new 0 0 64 64" height="512" viewBox="0 0 64 64" width="512" xmlns="http://www.w3.org/2000/svg"><path d="m55 10.333-8 10.667h4v15h2v-17h-2l4-5.333 4 5.333h-2v24h2v-22h4z"/><path d="m5 44h2v-24h-2l4-5.333 4 5.333h-2v16h2v-14h4l-8-10.667-8 10.667h4z"/><path d="m51.975 49.755c1.825-1.265 3.025-3.372 3.025-5.755 0-3.859-3.14-7-7-7-.34 0-.672.033-1 .08v-4.08h2v-6h-9v-8.198l3.519-.782c3.227-.717 5.481-3.527 5.481-6.833v-7.187c0-1.654-1.346-3-3-3s-3 1.346-3 3v6.306c0 .491-.352.906-.836.986l-4.453.742c.809-1.141 1.289-2.531 1.289-4.034 0-3.86-3.14-7-7-7s-7 3.14-7 7c0 1.503.48 2.893 1.289 4.034l-4.453-.742c-.484-.081-.836-.496-.836-.986v-6.306c0-1.654-1.346-3-3-3s-3 1.346-3 3v7.187c0 3.306 2.254 6.116 5.481 6.833l3.519.782v8.198h-9v6h2v4.08c-.328-.047-.66-.08-1-.08-3.86 0-7 3.141-7 7 0 2.383 1.2 4.49 3.025 5.755-4.104 1.598-7.025 5.582-7.025 10.245v3h16 2 18 2 16v-3c0-4.663-2.921-8.647-7.025-10.245zm1.025-5.755c0 2.757-2.243 5-5 5s-5-2.243-5-5 2.243-5 5-5 5 2.243 5 5zm-20.04-22.375-.96.961-.96-.96.626-6.642c.111.004.221.016.334.016s.223-.012.334-.017zm-.96-18.625c2.757 0 5 2.243 5 5s-2.243 5-5 5-5-2.243-5-5 2.243-5 5-5zm-11.085 13.068c-2.305-.512-3.915-2.519-3.915-4.881v-7.187c0-.551.449-1 1-1s1 .449 1 1v6.306c0 1.473 1.054 2.717 2.507 2.959l8.184 1.364-.73 7.746 3.04 3.04 3.04-3.04-.73-7.746 8.184-1.364c1.451-.242 2.505-1.487 2.505-2.959v-6.306c0-.551.449-1 1-1s1 .449 1 1v7.187c0 2.362-1.61 4.369-3.915 4.881l-5.085 1.13v9.802h-12v-9.802zm-3.915 12.932h30v2h-30zm2 4h26v4.685c-2.361 1.126-4 3.53-4 6.315 0 2.381 1.198 4.486 3.02 5.751-1.513.588-2.886 1.505-4.022 2.72-1.114-1.183-2.483-2.117-4.023-2.716 1.825-1.265 3.025-3.372 3.025-5.755 0-3.859-3.14-7-7-7s-7 3.141-7 7c0 2.383 1.2 4.49 3.025 5.755-1.539.6-2.909 1.534-4.023 2.716-1.136-1.215-2.509-2.132-4.022-2.72 1.822-1.265 3.02-3.37 3.02-5.751 0-2.785-1.639-5.188-4-6.315zm8 11c0-2.757 2.243-5 5-5s5 2.243 5 5-2.243 5-5 5-5-2.243-5-5zm-16 0c0-2.757 2.243-5 5-5s5 2.243 5 5-2.243 5-5 5-5-2.243-5-5zm1 17v-6h-2v6h-3v-1c0-4.963 4.038-9 9-9 2.617 0 5.033 1.12 6.745 3.078-1.099 1.712-1.745 3.741-1.745 5.922v1zm26 0v-6h-2v6h-8v-6h-2v6h-3v-1c0-4.963 4.038-9 9-9s9 4.037 9 9v1zm19 0h-3v-6h-2v6h-9v-1c0-2.181-.646-4.21-1.745-5.922 1.712-1.958 4.128-3.078 6.745-3.078 4.962 0 9 4.037 9 9z"/><path d="m57 45h2v2h-2z"/><path d="m57 49h2v2h-2z"/><path d="m5 46h2v2h-2z"/><path d="m5 50h2v2h-2z"/></svg>