<?xml version="1.0" encoding="iso-8859-1"?>
<!-- Generator: Adobe Illustrator 19.0.0, SVG Export Plug-In . SVG Version: 6.00 Build 0)  -->
<svg version="1.1" id="Capa_1" xmlns="http://www.w3.org/2000/svg" xmlns:xlink="http://www.w3.org/1999/xlink" x="0px" y="0px"
	 viewBox="0 0 512 512" style="enable-background:new 0 0 512 512;" xml:space="preserve">
<polygon style="fill:#19DEC1;" points="512,209.5 512,302.5 393.5,421 118.5,421 0,302.5 0,209.5 118.5,91 393.5,91 "/>
<polygon style="fill:#17CEB4;" points="512,209.5 512,302.5 393.5,421 256,421 256,91 393.5,91 "/>
<g>
	<path style="fill:#11AD94;" d="M512,406V302.516c-4.942-0.716-9.864-1.516-15-1.516c-57.891,0-105,47.109-105,105
		c0,5.136,0.8,10.058,1.516,15H497C505.291,421,512,414.291,512,406z"/>
	<path style="fill:#11AD94;" d="M497,211c5.136,0,10.058-0.8,15-1.516V106c0-8.291-6.709-15-15-15H393.516
		C392.8,95.942,392,100.864,392,106C392,163.891,439.109,211,497,211z"/>
</g>
<g>
	<path style="fill:#17CEB4;" d="M15,301c-5.136,0-10.058,0.8-15,1.516V406c0,8.291,6.709,15,15,15h103.484
		c0.716-4.942,1.516-9.864,1.516-15C120,348.109,72.891,301,15,301z"/>
	<path style="fill:#17CEB4;" d="M120,106c0-5.136-0.8-10.058-1.516-15H15c-8.291,0-15,6.709-15,15v103.484
		C4.942,210.2,9.864,211,15,211C72.891,211,120,163.891,120,106z"/>
</g>
<path style="fill:#787780;" d="M301,286c0,6-1.199,12.001-3.6,17.401c-5.099,11.999-14.7,20.7-26.4,24.899V346
	c0,8.401-6.599,15-15,15s-15-6.599-15-15v-17.701c-11.7-4.199-21.301-12.9-26.4-24.899c-3.3-7.5,0.3-16.201,7.8-19.501
	s16.5,0.3,19.799,7.8c2.401,5.7,8.101,8.699,13.801,8.699c5.7,0,11.4-2.999,13.801-8.699c0.899-1.8,1.199-3.6,1.199-5.7
	c0-8.401-6.599-15-15-15c-24.901,0-45-20.099-45-45c0-19.501,12.599-36,30-42.299V166c0-8.401,6.599-15,15-15s15,6.599,15,15v17.701
	c11.7,4.199,21.301,12.9,26.4,24.899c3.3,7.5-0.3,16.201-7.8,19.501c-7.8,3.3-16.5-0.3-19.799-7.8C267.4,214.6,262,211,256,211
	c-8.401,0-15,6.599-15,15s6.599,15,15,15C280.901,241,301,261.099,301,286z"/>
<g>
	<path style="fill:#57555C;" d="M256,211v-60c8.401,0,15,6.599,15,15v17.701c11.7,4.199,21.301,12.9,26.4,24.899
		c3.3,7.5-0.3,16.201-7.8,19.501c-7.8,3.3-16.5-0.3-19.799-7.8C267.4,214.6,262,211,256,211z"/>
	<path style="fill:#57555C;" d="M301,286c0,6-1.199,12.001-3.6,17.401c-5.099,11.999-14.7,20.7-26.4,24.899V346
		c0,8.401-6.599,15-15,15v-60.601c5.7,0,11.4-2.999,13.801-8.699c0.899-1.8,1.199-3.6,1.199-5.7c0-8.401-6.599-15-15-15v-30
		C280.901,241,301,261.099,301,286z"/>
</g>
<g>
</g>
<g>
</g>
<g>
</g>
<g>
</g>
<g>
</g>
<g>
</g>
<g>
</g>
<g>
</g>
<g>
</g>
<g>
</g>
<g>
</g>
<g>
</g>
<g>
</g>
<g>
</g>
<g>
</g>
</svg>
