<svg id="Capa_1" enable-background="new 0 0 512 512" height="512" viewBox="0 0 512 512" width="512" xmlns="http://www.w3.org/2000/svg"><g><path d="m273.14 106.527c-14.403-61.072-69.251-106.527-134.721-106.527l-20.016 126.543z" fill="#ffa2c1"/><path d="m487.09 197.11-150.745 122.438 88.444 60.137 62.301-62.301c33.213-33.212 33.213-87.061 0-120.274z" fill="#e50058"/><path d="m487.09 197.11c-33.213-33.213-87.062-33.213-120.275 0l-62.301 62.301 45.984 74.291z" fill="#ff415b"/><path d="m291.242 364.652 88.444 60.137 45.103-45.103-60.137-60.138z" fill="#b4d2d7"/><path d="m138.419 0c-65.47 0-120.317 45.455-134.72 106.527l134.721 20.016v-126.543z" fill="#ffc9d0"/><path d="m273.14 106.527h-134.72l-20.016 83.801 154.736-20.016c2.415-10.24 3.699-20.916 3.699-31.893s-1.284-21.653-3.699-31.892z" fill="#ff80aa"/><path d="m138.419 106.527h-134.72c-2.415 10.239-3.699 20.915-3.699 31.892s1.284 21.653 3.699 31.893l134.721 20.016v-83.801z" fill="#ffa2c1"/><path d="m138.419 276.839c65.47 0 120.317-45.455 134.72-106.527h-134.72l-20.016 53.263z" fill="#ffa2c1"/><path d="m3.699 170.312c14.403 61.071 69.251 106.527 134.72 106.527v-106.527z" fill="#ffc9d0"/><path d="m364.652 319.548-60.138-60.137-45.103 45.103 45.984 74.291z" fill="#e1ebf0"/><path d="m197.11 487.09c33.213 33.213 87.062 33.213 120.275 0l62.301-62.301-60.137-60.137-59.06 30.753z" fill="#e1ebf0"/><path d="m259.411 304.514-62.301 62.301c-33.213 33.213-33.213 87.062 0 120.275l122.439-122.439z" fill="#fff5f5"/></g></svg>