<?xml version="1.0" encoding="iso-8859-1"?>
<!-- Generator: Adobe Illustrator 19.0.0, SVG Export Plug-In . SVG Version: 6.00 Build 0)  -->
<svg version="1.1" id="Layer_1" xmlns="http://www.w3.org/2000/svg" xmlns:xlink="http://www.w3.org/1999/xlink" x="0px" y="0px"
	 viewBox="0 0 511.999 511.999" style="enable-background:new 0 0 511.999 511.999;" xml:space="preserve">
<path style="fill:#FDC00F;" d="M228.082,148.569l28.264,0.174l0.279-45.413l-28.264-0.174c-15.515-0.095-23.17-18.902-12.132-29.805
	l20.109-19.863l-31.915-32.309l-20.109,19.863c-11.038,10.903-29.75,3.018-29.654-12.497l0.174-28.265L109.421,0l-0.174,28.264
	c-0.095,15.515-18.902,23.17-29.805,12.131L59.579,20.287l-32.31,31.915L47.132,72.31c10.903,11.038,3.018,29.75-12.497,29.654
	L6.37,101.791l-0.279,45.413l28.264,0.174c15.515,0.095,23.17,18.902,12.131,29.805l-20.109,19.863l31.915,32.309l20.109-19.863
	c11.038-10.903,29.75-3.018,29.654,12.497l-0.174,28.264l45.413,0.279l0.174-28.265c0.095-15.515,18.902-23.17,29.805-12.131
	l19.863,20.109l32.309-31.915l-19.863-20.109C204.681,167.185,212.567,148.474,228.082,148.569z M131.162,157.23
	c-17.653-0.109-31.875-14.507-31.766-32.16c0.109-17.653,14.507-31.875,32.16-31.766s31.875,14.507,31.766,32.16
	C163.214,143.117,148.815,157.339,131.162,157.23z"/>
<path style="fill:#52D6C6;" d="M471.252,331.678l34.655-12.941l-20.792-55.68l-34.655,12.941
	c-19.023,7.104-37.138-12.338-28.71-30.813l15.354-33.655l-54.074-24.669l-15.354,33.655c-8.428,18.474-34.986,17.537-42.089-1.486
	l-12.941-34.655l-55.68,20.792l12.941,34.655c7.104,19.023-12.338,37.138-30.813,28.71l-33.655-15.354l-6.638,14.551l-11.43,25.054
	l-6.601,14.469l33.655,15.354c18.474,8.428,17.537,34.986-1.486,42.089l-34.655,12.941l20.792,55.68l34.655-12.941
	c19.023-7.104,37.138,12.338,28.71,30.813l-15.354,33.655l54.075,24.669l15.354-33.655c8.428-18.474,34.986-17.537,42.089,1.486
	l12.941,34.655l55.68-20.793l-12.941-34.655c-7.104-19.023,12.338-37.138,30.813-28.71l33.655,15.354l24.669-54.074l-33.655-15.354
	C451.291,365.34,452.229,338.782,471.252,331.678z M356.729,387.376c-21.644,8.082-45.742-2.911-53.824-24.555
	c-8.082-21.644,2.911-45.742,24.555-53.824s45.742,2.911,53.824,24.555C389.366,355.196,378.373,379.294,356.729,387.376z"/>
<g style="opacity:0.1;">
	<path d="M471.252,331.678l34.655-12.941l-20.792-55.68l-14.211,5.306c-57.656,123.483-148.573,176.274-215.771,198.84l-8.048,17.64
		l54.075,24.669l15.354-33.655c8.428-18.474,34.986-17.537,42.089,1.486l12.941,34.655l55.68-20.793l-12.941-34.655
		c-7.104-19.023,12.338-37.138,30.813-28.71l33.655,15.354l24.669-54.074l-33.655-15.354
		C451.291,365.34,452.229,338.782,471.252,331.678z"/>
</g>
<g style="opacity:0.1;">
	<path d="M229.604,148.569l28.264,0.174l0.279-45.413l-28.264-0.174c-15.515-0.095-23.17-18.902-12.132-29.805l20.109-19.863
		l-25.245-25.557c-2.018,94.69-56.937,156.843-103.096,192.505c0.04,0.51,0.062,1.028,0.059,1.556l-0.174,28.264l45.413,0.279
		l0.174-28.265c0.095-15.515,18.902-23.17,29.805-12.131l19.863,20.109l32.309-31.915l-19.863-20.109
		C206.203,167.185,214.089,148.474,229.604,148.569z"/>
</g>
<g>
</g>
<g>
</g>
<g>
</g>
<g>
</g>
<g>
</g>
<g>
</g>
<g>
</g>
<g>
</g>
<g>
</g>
<g>
</g>
<g>
</g>
<g>
</g>
<g>
</g>
<g>
</g>
<g>
</g>
</svg>
